# File created by Blade
# Date/Time:  Wed Jan 21 17:41:14 2015
# Frame Rate: 120.000 fps
#------------------------------------------------------
:FULLY-SPECIFIED
:DEGREES
818
root 15.791638 13.562968 -23.678213 7.048526 84.064144 -75.929362
Spine -1.683623 4.621294 0.744384
Head 10.780360 -0.898834 -1.247600
LeftShoulder -8.091753 -18.870786 11.527908
LeftArm 42.764875 33.372146 -25.083897
LeftForeArm 13.710327 -0.000000 66.975464
LeftHand -3.167234 0.000000 70.238109
LeftHandThumb1 -26.253704 0.000000 33.147579
RightShoulder -3.338754 -11.387947 -12.983497
RightArm 50.059124 1.000141 42.090662
RightForeArm -43.764744 0.000000 68.288144
RightHand -5.233305 -0.000000 -56.300930
RightHandThumb1 -24.326973 -0.000000 -32.862282
LeftUpLeg -7.267571 7.065261 -4.797385
LeftLeg 2.733156 -0.000000 -0.000000
LeftFoot -15.452274 29.821141 -10.841787
LeftToeBase -27.560496 -0.000000 0.000000
RightUpLeg -9.826922 6.984146 2.420374
RightLeg 7.768552 -0.000000 -0.000000
RightFoot -17.850731 -14.297004 16.961816
RightToeBase -42.232410 -0.000000 0.000000
819
root 15.837636 13.383134 -23.640053 7.599515 84.110504 -75.663064
Spine -2.162184 4.545251 0.530363
Head 11.037477 -0.937694 -1.099882
LeftShoulder -8.402309 -18.551851 11.634425
LeftArm 42.299317 33.456184 -24.963277
LeftForeArm 13.896185 -0.000000 68.409843
LeftHand -2.905858 -0.000000 70.089272
LeftHandThumb1 -26.253704 0.000000 33.147579
RightShoulder -3.880884 -11.624183 -12.869628
RightArm 49.876638 0.471630 41.927071
RightForeArm -43.861920 -0.000000 69.355066
RightHand -5.371359 -0.000000 -56.111156
RightHandThumb1 -24.326973 -0.000000 -32.862282
LeftUpLeg -7.170202 6.606409 -4.733454
LeftLeg 2.615016 -0.000000 -0.000000
LeftFoot -15.755014 30.039892 -11.085651
LeftToeBase -27.219384 -0.000000 0.000000
RightUpLeg -9.791867 7.100710 2.416649
RightLeg 7.766929 -0.000000 -0.000000
RightFoot -18.208810 -14.446705 16.867570
RightToeBase -41.909583 -0.000000 0.000000
820
root 15.880937 13.207908 -23.601524 7.496074 84.196859 -76.114879
Spine -2.727317 4.397128 0.434483
Head 11.380267 -0.823213 -0.987596
LeftShoulder -8.782657 -18.157879 11.760048
LeftArm 41.918699 33.533758 -24.823728
LeftForeArm 14.191698 0.000000 69.857068
LeftHand -3.094145 -0.000000 69.842417
LeftHandThumb1 -26.253704 0.000000 33.147579
RightShoulder -4.251016 -11.837354 -12.772419
RightArm 49.508041 -0.023398 41.591417
RightForeArm -43.744025 -0.000000 70.559853
RightHand -5.478026 -0.000000 -55.720924
RightHandThumb1 -24.326973 -0.000000 -32.862282
LeftUpLeg -7.247295 6.355735 -4.610751
LeftLeg 2.724402 -0.000000 -0.000000
LeftFoot -16.070523 30.200914 -11.095955
LeftToeBase -27.078470 -0.000000 0.000000
RightUpLeg -9.837559 7.236629 2.485326
RightLeg 7.801404 -0.000000 -0.000000
RightFoot -18.556244 -14.667368 16.794479
RightToeBase -41.347314 -0.000000 0.000000
821
root 15.929804 13.010362 -23.572009 6.794647 84.426599 -77.022926
Spine -3.180492 4.123655 0.503011
Head 11.826775 -0.761792 -1.037543
LeftShoulder -9.207718 -17.704088 11.817293
LeftArm 41.690264 33.640839 -24.604418
LeftForeArm 14.416232 0.000000 71.202140
LeftHand -3.206260 0.000000 69.502917
LeftHandThumb1 -26.253704 0.000000 33.147579
RightShoulder -4.551127 -12.177665 -12.809569
RightArm 49.137125 -0.410986 41.408427
RightForeArm -43.678831 -0.000000 71.746509
RightHand -5.490989 -0.000000 -55.601002
RightHandThumb1 -24.326973 -0.000000 -32.862282
LeftUpLeg -7.081563 5.833699 -4.422691
LeftLeg 2.671220 -0.000000 -0.000000
LeftFoot -16.364932 30.404350 -11.168695
LeftToeBase -26.828632 -0.000000 0.000000
RightUpLeg -9.645831 7.051855 2.640934
RightLeg 7.741933 -0.000000 -0.000000
RightFoot -18.868414 -14.743473 16.713688
RightToeBase -41.015762 -0.000000 0.000000
822
root 15.980851 12.825668 -23.537972 6.872891 84.547745 -77.196063
Spine -3.690585 3.924342 0.412558
Head 12.333004 -0.740528 -1.025587
LeftShoulder -9.586274 -17.297489 11.945858
LeftArm 41.400850 33.803774 -24.332035
LeftForeArm 14.568244 -0.000000 72.499031
LeftHand -3.276910 0.000000 69.236969
LeftHandThumb1 -26.253704 0.000000 33.147579
RightShoulder -4.722978 -12.588690 -12.808220
RightArm 48.720963 -0.691419 41.330847
RightForeArm -43.707565 -0.000000 73.002770
RightHand -5.540970 -0.000000 -55.351030
RightHandThumb1 -24.326973 -0.000000 -32.862282
LeftUpLeg -6.969363 5.389088 -4.312799
LeftLeg 2.618706 -0.000000 -0.000000
LeftFoot -16.605390 30.640208 -11.589210
LeftToeBase -27.226437 -0.000000 0.000000
RightUpLeg -9.538469 7.138001 2.697103
RightLeg 7.701667 -0.000000 -0.000000
RightFoot -19.191790 -14.984470 16.700217
RightToeBase -40.520626 -0.000000 0.000000
823
root 16.031673 12.638727 -23.503011 6.724553 84.610626 -77.546295
Spine -4.159055 3.803932 0.339356
Head 12.917924 -0.610756 -0.976268
LeftShoulder -9.898629 -16.984803 12.128731
LeftArm 40.974480 34.042476 -24.279177
LeftForeArm 14.960209 -0.000000 73.691680
LeftHand -3.503990 -0.000000 69.066829
LeftHandThumb1 -26.253704 0.000000 33.147579
RightShoulder -4.867087 -12.918947 -12.813333
RightArm 48.241599 -1.027241 41.220895
RightForeArm -43.697116 -0.000000 74.257097
RightHand -5.711646 -0.000000 -54.998634
RightHandThumb1 -24.326973 -0.000000 -32.862282
LeftUpLeg -6.823117 5.171567 -4.204588
LeftLeg 2.580887 -0.000000 -0.000000
LeftFoot -16.832882 30.700363 -11.829966
LeftToeBase -27.270537 -0.000000 0.000000
RightUpLeg -9.390837 7.224556 2.783325
RightLeg 7.671657 -0.000000 -0.000000
RightFoot -19.429735 -15.099609 16.894165
RightToeBase -40.420481 -0.000000 0.000000
824
root 16.080147 12.458857 -23.473630 6.630408 84.706403 -77.905913
Spine -4.681210 3.641070 0.291619
Head 13.471749 -0.564672 -1.010580
LeftShoulder -10.206944 -16.811182 12.348093
LeftArm 40.417830 34.420923 -24.290681
LeftForeArm 15.122974 -0.000000 74.967786
LeftHand -3.634459 -0.000000 68.632437
LeftHandThumb1 -26.253704 0.000000 33.147579
RightShoulder -5.080678 -13.301195 -12.870842
RightArm 47.896320 -1.347136 41.273118
RightForeArm -43.761293 -0.000000 75.427331
RightHand -6.004028 -0.000000 -54.815854
RightHandThumb1 -24.326973 -0.000000 -32.862282
LeftUpLeg -6.748477 4.873547 -4.104724
LeftLeg 2.523845 -0.000000 -0.000000
LeftFoot -17.048268 30.697329 -12.149197
LeftToeBase -27.626879 -0.000000 0.000000
RightUpLeg -9.327222 7.244308 2.859205
RightLeg 7.656407 -0.000000 -0.000000
RightFoot -19.647291 -15.179954 17.072191
RightToeBase -40.462761 -0.000000 0.000000
825
root 16.129458 12.278116 -23.445875 6.693719 84.836370 -78.079820
Spine -5.158649 3.500457 0.221699
Head 13.956107 -0.575871 -1.035700
LeftShoulder -10.486434 -16.486733 12.493195
LeftArm 40.046052 34.626320 -24.194714
LeftForeArm 15.238816 -0.000000 76.144355
LeftHand -3.550914 0.000000 68.589884
LeftHandThumb1 -26.253704 0.000000 33.147579
RightShoulder -5.422099 -13.711230 -12.788142
RightArm 47.634855 -1.653196 41.054149
RightForeArm -43.776950 -0.000000 76.556191
RightHand -6.312653 0.000000 -54.720461
RightHandThumb1 -24.326973 -0.000000 -32.862282
LeftUpLeg -6.777683 4.982786 -4.065653
LeftLeg 2.701757 -0.000000 -0.000000
LeftFoot -17.255523 30.354504 -12.223586
LeftToeBase -27.811723 -0.000000 0.000000
RightUpLeg -9.242362 7.108005 2.938269
RightLeg 7.662189 -0.000000 -0.000000
RightFoot -19.830811 -15.157614 17.201277
RightToeBase -40.493209 -0.000000 0.000000
826
root 16.179052 12.097217 -23.421646 6.584667 84.982235 -78.342125
Spine -5.515109 3.354260 0.174283
Head 14.407620 -0.483421 -0.963296
LeftShoulder -10.678652 -16.267008 12.647310
LeftArm 39.418057 34.855917 -24.365457
LeftForeArm 15.388328 -0.000000 77.397482
LeftHand -3.505010 -0.000000 68.157404
LeftHandThumb1 -26.253704 0.000000 33.147579
RightShoulder -5.762436 -14.130297 -12.744384
RightArm 47.397130 -1.909886 40.874615
RightForeArm -43.817614 -0.000000 77.542438
RightHand -6.380129 -0.000000 -54.702424
RightHandThumb1 -24.326973 -0.000000 -32.862282
LeftUpLeg -6.703571 5.106238 -4.018744
LeftLeg 2.829612 -0.000000 -0.000000
LeftFoot -17.439519 30.064763 -12.343296
LeftToeBase -28.127564 -0.000000 0.000000
RightUpLeg -9.068512 6.923003 3.031310
RightLeg 7.666144 -0.000000 -0.000000
RightFoot -20.034865 -15.078288 17.362028
RightToeBase -40.339803 -0.000000 0.000000
827
root 16.227546 11.917556 -23.392254 6.809573 85.062942 -78.297596
Spine -5.876813 3.167221 0.061540
Head 14.749808 -0.304815 -0.844540
LeftShoulder -11.000679 -16.053143 12.880195
LeftArm 38.810873 35.099164 -24.516351
LeftForeArm 15.671112 -0.000000 78.658120
LeftHand -3.589127 0.000000 67.725278
LeftHandThumb1 -26.253704 0.000000 33.147579
RightShoulder -6.044609 -14.449453 -12.710478
RightArm 47.168002 -2.240178 40.775058
RightForeArm -43.864238 -0.000000 78.479216
RightHand -6.379033 -0.000000 -54.770936
RightHandThumb1 -24.326973 -0.000000 -32.862282
LeftUpLeg -6.671320 5.384580 -4.007663
LeftLeg 2.988112 -0.000000 -0.000000
LeftFoot -17.618822 29.713586 -12.419556
LeftToeBase -28.241240 -0.000000 0.000000
RightUpLeg -8.905206 6.806542 3.087506
RightLeg 7.623665 -0.000000 -0.000000
RightFoot -20.192119 -15.000222 17.460984
RightToeBase -40.256145 -0.000000 0.000000
828
root 16.274242 11.742925 -23.366093 6.981835 85.195756 -78.327706
Spine -6.240053 2.977842 -0.026700
Head 15.064818 -0.260387 -0.788133
LeftShoulder -11.372456 -15.537298 13.036479
LeftArm 38.604380 35.065779 -24.432562
LeftForeArm 15.953811 -0.000000 79.766850
LeftHand -3.668388 -0.000000 67.598148
LeftHandThumb1 -26.253704 0.000000 33.147579
RightShoulder -6.334172 -14.849913 -12.638993
RightArm 46.908916 -2.456658 40.635800
RightForeArm -43.906854 -0.000000 79.560010
RightHand -6.464358 -0.000000 -54.549795
RightHandThumb1 -24.326973 -0.000000 -32.862282
LeftUpLeg -6.658005 5.555219 -3.986027
LeftLeg 3.119800 -0.000000 -0.000000
LeftFoot -17.770106 29.383172 -12.549120
LeftToeBase -28.490934 -0.000000 0.000000
RightUpLeg -8.736322 6.708137 3.136385
RightLeg 7.520576 -0.000000 -0.000000
RightFoot -20.334761 -14.985576 17.496683
RightToeBase -40.122406 -0.000000 0.000000
829
root 16.325096 11.561811 -23.340615 6.781380 85.298268 -78.607437
Spine -6.443434 2.866540 -0.080371
Head 15.358372 -0.261002 -0.731731
LeftShoulder -11.750567 -15.185885 13.090238
LeftArm 38.504726 35.149404 -24.150335
LeftForeArm 16.084424 -0.000000 80.838851
LeftHand -3.710230 -0.000000 67.615784
LeftHandThumb1 -26.253704 0.000000 33.147579
RightShoulder -6.588312 -15.109477 -12.613527
RightArm 46.518110 -2.752965 40.513700
RightForeArm -43.904346 -0.000000 80.614726
RightHand -6.550648 -0.000000 -54.654613
RightHandThumb1 -24.326973 -0.000000 -32.862282
LeftUpLeg -6.458540 5.728600 -3.932500
LeftLeg 3.149349 -0.000000 -0.000000
LeftFoot -17.841998 29.080961 -12.649539
LeftToeBase -28.870028 -0.000000 0.000000
RightUpLeg -8.501678 6.426748 3.230204
RightLeg 7.545477 -0.000000 -0.000000
RightFoot -20.432514 -14.703536 17.632588
RightToeBase -40.211534 -0.000000 0.000000
830
root 16.370482 11.392778 -23.317530 6.814291 85.406575 -78.800093
Spine -6.809246 2.754899 -0.146138
Head 15.651987 -0.259507 -0.663133
LeftShoulder -12.215100 -14.801028 13.179791
LeftArm 38.621379 35.263966 -23.717454
LeftForeArm 16.084783 -0.000000 81.785606
LeftHand -3.565799 -0.000000 67.449512
LeftHandThumb1 -26.253704 0.000000 33.147579
RightShoulder -6.801215 -15.348798 -12.598858
RightArm 45.939131 -3.018988 40.430597
RightForeArm -44.115370 -0.000000 81.941134
RightHand -6.925142 0.000000 -54.088088
RightHandThumb1 -24.326973 -0.000000 -32.862282
LeftUpLeg -6.434176 5.813347 -3.895981
LeftLeg 3.196975 -0.000000 -0.000000
LeftFoot -17.935180 28.853340 -12.689857
LeftToeBase -29.098299 -0.000000 0.000000
RightUpLeg -8.396995 6.358502 3.272124
RightLeg 7.493878 -0.000000 -0.000000
RightFoot -20.545846 -14.657359 17.675739
RightToeBase -40.221457 -0.000000 0.000000
